<svg width="1022" height="416" viewBox="0 0 1022 416" fill="none" xmlns="http://www.w3.org/2000/svg">
<path d="M159.085 96.8188C160.133 96.822 160.133 96.822 161.202 96.8253C192.7 96.9806 224.907 106.014 250.397 125.131C250.727 118.861 251.057 112.591 251.397 106.131C273.507 106.131 295.617 106.131 318.397 106.131C318.397 205.791 318.397 305.451 318.397 408.131C296.287 408.131 274.177 408.131 251.397 408.131C251.397 400.871 251.397 393.611 251.397 386.131C248.798 387.781 246.2 389.431 243.522 391.131C207.243 413.568 163.477 420.548 121.897 411.006C80.7763 400.966 44.7079 374.15 22.6548 338.077C1.16194 301.381 -5.52263 258.143 4.68607 216.721C10.8264 193.325 21.5361 171.47 37.397 153.131C37.8522 152.603 38.3074 152.075 38.7764 151.531C49.5988 139.097 61.5518 129.01 75.397 120.131C75.9782 119.757 76.5594 119.383 77.1582 118.998C101.544 103.569 130.44 96.6586 159.085 96.8188ZM91.8775 192.596C73.8136 211.583 66.7681 235.741 67.1236 261.346C67.9067 284.821 78.7682 306.752 95.397 323.131C114.33 340.236 137.673 349.079 163.167 348.475C188.096 346.818 208.724 336.556 226.397 319.131C227.141 318.4 227.885 317.669 228.651 316.916C245.553 299.154 252.018 274.589 251.67 250.694C250.816 226.165 238.932 203.905 221.397 187.131C183.197 152.4 127.478 157.769 91.8775 192.596Z" fill="#FF7900"/>
<path d="M621.598 0.00679326C622.715 0.0121862 622.715 0.0121862 623.854 0.017688C624.635 0.017542 625.415 0.017396 626.219 0.0172455C628.811 0.0179448 631.403 0.0257381 633.995 0.0335572C635.787 0.0354213 637.579 0.0368452 639.371 0.0378449C644.098 0.0416706 648.824 0.0515013 653.551 0.0625489C658.37 0.0727619 663.189 0.0773423 668.008 0.0823853C677.471 0.0931235 686.934 0.110201 696.397 0.131213C695.092 2.79414 693.749 5.15989 691.963 7.52965C691.485 8.16629 691.007 8.80292 690.515 9.45885C689.745 10.4723 689.745 10.4723 688.959 11.5062C688.155 12.5719 688.155 12.5719 687.334 13.659C683.059 19.3019 678.705 24.8787 674.315 30.432C670.967 34.6692 667.649 38.9304 664.334 43.1937C663.735 43.9644 663.136 44.7351 662.519 45.5292C658.335 50.9141 654.174 56.316 650.022 61.725C646.228 66.6569 642.399 71.561 638.575 76.4701C635.105 80.9288 631.648 85.3973 628.209 89.8812C622.995 96.6753 617.7 103.406 612.397 110.131C612.969 110.146 613.541 110.16 614.131 110.175C658.046 111.416 696.049 125.783 727.397 157.131C730.594 160.662 733.523 164.335 736.397 168.131C737.186 169.143 737.975 170.155 738.788 171.198C756.211 194.089 768.418 223.842 768.6 252.873C768.606 253.6 768.611 254.327 768.617 255.075C768.627 256.61 768.633 258.144 768.637 259.679C768.647 261.966 768.678 264.251 768.709 266.537C768.99 305.364 752.269 341.603 725.397 369.131C724.696 369.894 723.994 370.657 723.272 371.444C697.502 398.775 657.664 414.221 620.53 415.467C575.87 416.048 535.714 402.321 503.397 371.131C502.545 370.342 501.693 369.553 500.815 368.741C474.132 343.36 459.529 305.549 458.116 269.174C456.991 220.481 478.712 183.46 507.379 146.024C514.173 137.148 520.794 128.149 527.397 119.131C535.306 108.33 543.297 97.6047 551.431 86.972C558.201 78.1084 564.808 69.1296 571.397 60.1312C579.296 49.3435 587.274 38.6281 595.403 28.0116C600.733 21.0368 605.962 13.9912 611.145 6.9066C611.691 6.16088 612.237 5.41516 612.799 4.64684C613.279 3.98974 613.758 3.33264 614.252 2.65563C616.476 -0.305046 617.919 0.0142911 621.598 0.00679326ZM549.147 200.506C530.517 222.482 525.932 248.169 527.397 276.131C529.719 298.689 541.666 320.57 558.959 335.131C578.377 350.061 600.775 356.326 625.209 353.444C648.392 349.789 669.092 337.742 683.397 319.131C698.659 298.106 703.121 273.003 700.076 247.437C699.25 242.527 697.938 237.862 696.397 233.131C696.046 232.001 695.696 230.87 695.334 229.705C690.876 216.779 683.005 205.757 673.397 196.131C672.712 195.435 672.028 194.739 671.323 194.022C656.031 179.436 634.597 172.226 613.709 171.819C588.456 172.572 566.418 181.945 549.147 200.506Z" fill="#FF7900"/>
<path d="M792.397 109.131C867.967 109.131 943.537 109.131 1021.4 109.131C1021.4 170.131 1021.4 170.131 1012.4 180.131C1010.92 181.887 1009.46 183.654 1008.02 185.444C1004.68 189.575 1001.28 193.648 997.834 197.694C994.629 201.462 991.47 205.254 988.397 209.131C984.868 213.584 981.215 217.918 977.534 222.245C973.866 226.561 970.276 230.936 966.702 235.33C964.177 238.399 961.602 241.422 959.022 244.444C955.239 248.88 951.592 253.397 948.022 258.006C943.566 263.751 938.886 269.262 934.097 274.732C930.178 279.212 926.377 283.773 922.631 288.401C920.135 291.451 917.582 294.447 915.022 297.444C911.239 301.88 907.592 306.397 904.022 311.006C899.574 316.742 894.902 322.246 890.119 327.705C885.975 332.44 881.962 337.26 878.006 342.155C876.397 344.131 876.397 344.131 875.397 345.131C923.577 345.461 971.757 345.791 1021.4 346.131C1021.4 366.261 1021.4 386.391 1021.4 407.131C945.827 407.131 870.257 407.131 792.397 407.131C792.397 345.621 792.397 345.621 806.959 328.569C810.834 324.016 814.603 319.396 818.315 314.709C820.728 311.722 823.215 308.801 825.709 305.881C829.514 301.425 833.185 296.89 836.772 292.256C841.177 286.573 845.816 281.139 850.561 275.737C854.145 271.635 857.568 267.443 860.897 263.131C865.256 257.484 869.854 252.096 874.561 246.737C878.145 242.634 881.568 238.443 884.897 234.131C889.326 228.395 893.993 222.91 898.768 217.46C902.427 213.275 905.946 209.008 909.385 204.639C911.768 201.669 914.236 198.775 916.709 195.881C921.628 190.117 926.335 184.205 930.987 178.225C933.102 175.51 935.247 172.819 937.397 170.131C889.547 170.131 841.697 170.131 792.397 170.131C792.397 150.001 792.397 129.871 792.397 109.131Z" fill="#FF7900"/>
<path d="M318.397 0.131226C355.027 0.131226 391.657 0.131226 429.397 0.131226C429.397 134.441 429.397 268.751 429.397 407.131C406.957 407.131 384.517 407.131 361.397 407.131C361.397 292.951 361.397 178.771 361.397 61.1312C347.207 61.1312 333.017 61.1312 318.397 61.1312C318.397 41.0012 318.397 20.8712 318.397 0.131226Z" fill="#FF7900"/>
</svg>
