<!--?xml version="1.0" encoding="utf-8"?-->
<!-- Svg Vector Icons : http://www.onlinewebfonts.com/icon -->

<svg version="1.1" xmlns="http://www.w3.org/2000/svg" xmlns:xlink="http://www.w3.org/1999/xlink" x="0px" y="0px" viewBox="0 0 256 256" enable-background="new 0 0 256 256" xml:space="preserve">
<metadata> Svg Vector Icons : http://www.onlinewebfonts.com/icon </metadata>
<g><g><path fill="#00d991" data-title="Layer 0" xs="0" d="M220.3,67.6c-1,0.8-1.5,2-1.3,3.1c0.1,0.6,0.4,1.1,0.8,1.6l13.8,14.5c-58.6-5.6-98.2,25.5-101,27.7c-4.1,2.9-7.7,5.9-10.6,9.1c-70.6,0.1-111.3,60.4-111.8,61c-0.6,1.2-0.2,2.9,1.1,3.9c1.4,1.1,3.3,1,4.3-0.1c0,0,37.3-55.1,101.1-58.1c-3.1,4.8-4.8,9.8-5.3,15c-1.3,15.2,9.4,26.1,9.9,26.5c0,0,20.6,21.5,46.8,9c13.1-6.2,13.1-23.6,13.1-24.3l-0.1-0.8c-2.3-23.7-34.7-29.9-36-30.1c-4.8-0.9-9.4-1.4-14-1.8c1.6-1.4,3.3-2.7,5.2-4l0.2-0.1c0.4-0.3,39.8-31.9,96.9-26.3l-17.2,13.7c-1,0.8-1.5,2-1.3,3.1c0.1,0.6,0.4,1.1,0.8,1.6c0.6,0.6,1.5,1.1,2.5,1.1c1,0,1.9-0.3,2.6-0.8l23.6-18.8c1-0.8,1.5-2,1.3-3.1c0,0,0,0,0-0.1c-0.1-0.6-0.4-1.1-0.8-1.5l-19.8-20.8C224.1,66.5,221.8,66.4,220.3,67.6z M174.4,156.7c-0.1,2.2-1.2,13.1-9.5,17.8c-8.5,4.8-25.1,5-39-7.7c-2-2.3-8.5-10.4-7.7-21c0.4-5.4,2.8-10.6,6.9-15.7c6.1,0.1,12.3,1.3,18.9,2.5C144.2,132.7,171.6,137.8,174.4,156.7z"/></g></g>
</svg>