<svg width="512" height="512" viewBox="0 0 512 512" fill="none" xmlns="http://www.w3.org/2000/svg">
<rect width="512" height="512" fill="black"/>
<path d="M96.0001 186C108.298 186.858 120.424 187.793 132.508 190.289C135.69 190.937 138.847 191.432 142.063 191.875C165.158 195.326 188.905 200.866 210 211C211.031 211.474 212.063 211.949 213.125 212.438C226.917 219.933 234.239 228.715 238.809 243.723C243.448 259.901 245.118 276.47 246.675 293.179C246.948 295.954 246.948 295.954 247.532 298.456C248.101 301.55 248.112 304.468 248.098 307.613C248.094 308.86 248.091 310.108 248.088 311.393C248.08 312.686 248.071 313.98 248.063 315.312C248.058 316.625 248.054 317.938 248.049 319.291C248.037 322.527 248.021 325.764 248 329C241.407 328.75 237.1 327.45 231.75 323.625C230.579 322.825 229.407 322.026 228.234 321.227C226.633 320.124 226.633 320.124 225 319C224.036 318.451 223.072 317.902 222.078 317.336C221.392 316.895 220.707 316.454 220 316C220 315.34 220 314.68 220 314C219.295 313.763 218.59 313.526 217.863 313.281C214.497 311.775 212.03 309.844 209.188 307.5C208.212 306.706 207.236 305.912 206.231 305.094C205.494 304.403 204.758 303.712 204 303C204 302.34 204 301.68 204 301C203.443 300.938 202.886 300.876 202.313 300.812C199.041 299.663 197.415 297.474 195 295C193.157 293.28 191.303 291.571 189.438 289.875C188.508 289.027 187.579 288.179 186.621 287.305C184.112 285.022 184.112 285.022 181.66 283.32C180.838 282.667 180.838 282.667 180 282C180 281.34 180 280.68 180 280C178.02 279.01 178.02 279.01 176 278C176 277.34 176 276.68 176 276C174.02 275.01 174.02 275.01 172 274C172 273.34 172 272.68 172 272C171.443 271.959 170.886 271.918 170.313 271.875C167.444 270.79 166.262 269.054 164.418 266.676C162.908 264.892 161.304 263.483 159.5 262C156.201 259.265 153.693 256.33 151 253C150.113 252.134 149.226 251.267 148.313 250.375C146 248 146 248 144.938 245.812C143.727 243.471 142.398 242.959 140 242C140 241.34 140 240.68 140 240C138.68 239.34 137.36 238.68 136 238C136 237.34 136 236.68 136 236C135.01 235.67 134.02 235.34 133 235C131.457 233.469 131.457 233.469 129.813 231.5C126.467 227.54 123.01 223.702 119.504 219.883C118 218 118 218 118 216C117.34 216 116.68 216 116 216C114.233 213.931 112.576 211.854 110.938 209.688C109.952 208.4 108.965 207.114 107.977 205.828C107.481 205.183 106.985 204.538 106.474 203.873C105.112 202.143 103.713 200.463 102.273 198.797C101.461 197.853 100.649 196.91 99.8126 195.938C99.0765 195.101 98.3405 194.264 97.5821 193.402C95.7457 190.614 95.8631 189.256 96.0001 186Z" fill="white"/>
<path d="M416 187C416 188.65 416 190.3 416 192C415.34 192 414.68 192 414 192C413.732 192.572 413.464 193.145 413.187 193.734C411.959 196.079 410.575 198.124 409 200.25C408.484 200.956 407.969 201.663 407.437 202.391C406.963 202.922 406.489 203.453 406 204C405.34 204 404.68 204 404 204C403.938 204.557 403.876 205.114 403.812 205.688C402.663 208.958 400.466 210.565 398 213C395.936 215.297 393.936 217.647 391.937 220C391.163 220.905 391.163 220.905 390.373 221.828C388.1 224.492 385.882 227.154 383.754 229.938C383.175 230.618 382.596 231.299 382 232C381.34 232 380.68 232 380 232C379.34 233.32 378.68 234.64 378 236C377.34 236 376.68 236 376 236C375.737 236.579 375.474 237.158 375.203 237.754C371.861 243.993 366.365 248.548 361 253C359.456 254.737 357.982 256.522 356.5 258.313C354.256 260.836 351.591 262.841 349 265C347.461 266.732 345.991 268.511 344.516 270.297C343.027 271.97 341.491 273.347 339.75 274.75C336.863 276.888 336.863 276.888 335 280C334.01 280 333.02 280 332 280C331.01 281.98 331.01 281.98 330 284C329.34 284 328.68 284 328 284C327.34 285.32 326.68 286.64 326 288C325.34 288 324.68 288 324 288C324 288.66 324 289.32 324 290C322.321 291.496 320.58 292.923 318.812 294.313C315.808 296.681 313.004 298.996 310.324 301.731C308 304 308 304 305 305C304.34 305.99 303.68 306.98 303 308C302.01 308 301.02 308 300 308C299.505 309.485 299.505 309.485 299 311C295.579 313.988 291.773 316.479 288 319C287.087 319.61 287.087 319.61 286.156 320.233C272.614 329.151 272.614 329.151 264 329C263.719 317.802 264.452 306.833 265.544 295.693C265.812 292.939 266.064 290.184 266.314 287.428C267.161 278.425 268.241 269.68 270.329 260.87C270.984 258.069 271.484 255.277 271.937 252.438C274.597 237.735 279.404 224.814 292 216C312.678 203.355 338.129 197.789 361.769 193.613C364.998 193.075 364.998 193.075 368 192C370.35 191.661 372.705 191.353 375.062 191.063C379.31 190.527 383.51 189.951 387.687 189C392.892 187.894 398.151 187.362 403.437 186.813C404.327 186.717 405.217 186.62 406.133 186.522C407.396 186.397 407.396 186.397 408.684 186.27C409.442 186.193 410.201 186.117 410.982 186.038C413 186 413 186 416 187Z" fill="white"/>
</svg>
