<svg width="2482" height="591" viewBox="0 0 2482 591" fill="none" xmlns="http://www.w3.org/2000/svg">
<path d="M1517.49 32.113C1517.94 32.1104 1518.39 32.1079 1518.86 32.1052C1520.36 32.0984 1521.86 32.101 1523.37 32.1037C1524.45 32.1008 1525.53 32.0973 1526.61 32.0933C1529.54 32.0844 1532.47 32.084 1535.4 32.0857C1537.84 32.0864 1540.29 32.0831 1542.74 32.0799C1548.51 32.0725 1554.28 32.0723 1560.05 32.0763C1566 32.0803 1571.95 32.0721 1577.9 32.0579C1583.02 32.0461 1588.13 32.0421 1593.24 32.0443C1596.29 32.0455 1599.35 32.0437 1602.4 32.0345C1605.27 32.0261 1608.14 32.0274 1611.01 32.0361C1612.06 32.0377 1613.11 32.0358 1614.17 32.0303C1615.61 32.0234 1617.04 32.0287 1618.48 32.0372C1619.69 32.0371 1619.69 32.0371 1620.92 32.0369C1623.3 32.3178 1624.52 32.7777 1626.38 34.2888C1627.48 36.5566 1627.88 38.3833 1627.88 40.8926C1627.88 41.5378 1627.89 42.1831 1627.89 42.8479C1627.89 43.5529 1627.88 44.258 1627.88 44.9844C1627.88 46.117 1627.88 46.117 1627.89 47.2724C1627.89 49.8209 1627.89 52.3693 1627.89 54.9178C1627.89 56.756 1627.89 58.5942 1627.89 60.4324C1627.9 64.4386 1627.9 68.4447 1627.9 72.4508C1627.89 78.4081 1627.9 84.3653 1627.9 90.3226C1627.91 101.58 1627.91 112.838 1627.91 124.096C1627.91 132.788 1627.91 141.48 1627.92 150.172C1627.92 151.42 1627.92 152.668 1627.92 153.915C1627.92 155.796 1627.92 157.676 1627.92 159.556C1627.92 177.043 1627.93 194.529 1627.92 212.016C1627.92 212.675 1627.92 213.335 1627.92 214.014C1627.92 217.357 1627.92 220.7 1627.92 224.043C1627.92 224.707 1627.92 225.371 1627.92 226.055C1627.92 227.398 1627.92 228.74 1627.92 230.083C1627.92 250.977 1627.92 271.871 1627.94 292.765C1627.95 316.229 1627.96 339.692 1627.95 363.155C1627.95 365.656 1627.95 368.156 1627.95 370.657C1627.95 371.273 1627.95 371.889 1627.95 372.523C1627.95 381.828 1627.96 391.133 1627.96 400.438C1627.97 411.018 1627.97 421.597 1627.96 432.177C1627.96 438.1 1627.96 444.024 1627.97 449.947C1627.98 453.901 1627.97 457.856 1627.97 461.81C1627.96 464.065 1627.96 466.319 1627.97 468.574C1627.98 471.001 1627.97 473.428 1627.96 475.855C1627.97 476.557 1627.97 477.259 1627.98 477.982C1627.95 481.847 1627.61 484.657 1625.71 488.053C1623.2 489.628 1620.75 489.557 1617.84 489.562C1617.39 489.565 1616.94 489.567 1616.48 489.57C1614.99 489.577 1613.5 489.574 1612 489.571C1610.93 489.574 1609.85 489.578 1608.78 489.582C1605.87 489.591 1602.96 489.591 1600.05 489.589C1597.61 489.589 1595.18 489.592 1592.75 489.595C1587.02 489.602 1581.28 489.603 1575.55 489.599C1569.63 489.595 1563.71 489.603 1557.8 489.617C1552.72 489.629 1547.64 489.633 1542.56 489.631C1539.52 489.629 1536.49 489.631 1533.45 489.64C1530.6 489.649 1527.75 489.648 1524.9 489.639C1523.85 489.637 1522.8 489.639 1521.76 489.645C1520.33 489.652 1518.9 489.646 1517.47 489.638C1516.67 489.638 1515.87 489.638 1515.05 489.638C1512.7 489.36 1511.47 488.802 1509.6 487.386C1506.96 483.433 1507.5 478.183 1507.56 473.555C1507.56 472.763 1507.56 472.763 1507.56 471.954C1507.57 470.286 1507.58 468.618 1507.6 466.95C1507.61 464.745 1507.63 462.54 1507.64 460.334C1507.64 459.837 1507.65 459.34 1507.66 458.828C1507.67 455.819 1507.43 452.986 1506.93 450.017C1502 451.512 1498.83 455.398 1495.58 459.185C1475.42 482.076 1444.95 494.726 1414.84 496.728C1393.27 497.564 1372.13 495.209 1352.12 486.719C1351.6 486.507 1351.09 486.294 1350.56 486.076C1336.26 480.105 1323.96 471.938 1312.08 462.029C1311.67 461.698 1311.26 461.366 1310.84 461.025C1296.35 449.196 1285.42 432.332 1276.71 415.985C1276.49 415.582 1276.27 415.179 1276.05 414.764C1268.88 401.563 1263.92 387.252 1260.7 372.61C1260.57 372.03 1260.44 371.45 1260.31 370.852C1251.78 331.272 1253.38 284.098 1266.7 245.823C1266.87 245.325 1267.04 244.826 1267.22 244.313C1269.66 237.217 1272.45 230.446 1275.98 223.827C1276.48 222.898 1276.97 221.967 1277.46 221.032C1283.05 210.315 1289.75 200.561 1298.06 191.772C1298.83 190.885 1299.6 189.996 1300.36 189.103C1305.35 183.4 1310.82 178.46 1316.75 173.755C1317.5 173.121 1317.5 173.121 1318.27 172.475C1333.97 159.419 1351.92 150.891 1371.59 145.853C1372.34 145.659 1373.1 145.466 1373.87 145.266C1383.9 142.81 1393.69 142.134 1403.96 142.183C1404.51 142.185 1405.07 142.186 1405.64 142.188C1434.51 142.321 1461.58 151.412 1484.91 168.416C1485.32 168.709 1485.72 169.001 1486.14 169.303C1491.1 172.857 1491.1 172.857 1492.92 174.422C1492.92 174.862 1492.92 175.303 1492.92 175.757C1493.31 175.933 1493.7 176.11 1494.1 176.292C1495.63 177.117 1496.71 178.002 1497.97 179.195C1498.4 179.603 1498.83 180.011 1499.28 180.432C1499.73 180.857 1500.17 181.282 1500.63 181.721C1501.08 182.143 1501.53 182.566 1501.99 183.002C1503.88 184.79 1505.76 186.592 1507.6 188.435C1507.6 187.654 1507.6 186.872 1507.6 186.067C1507.66 167.519 1507.72 148.972 1507.78 130.425C1507.79 128.143 1507.8 125.861 1507.81 123.579C1507.81 123.124 1507.81 122.67 1507.81 122.202C1507.84 114.842 1507.86 107.483 1507.88 100.123C1507.9 92.5731 1507.93 85.0234 1507.96 77.4738C1507.98 73.2324 1507.99 68.991 1508 64.7495C1508.01 60.76 1508.02 56.7705 1508.04 52.7811C1508.05 51.3144 1508.05 49.8478 1508.05 48.3812C1508.06 46.3833 1508.07 44.3856 1508.08 42.3877C1508.08 41.8035 1508.08 41.2193 1508.07 40.6174C1508.08 40.0821 1508.08 39.5468 1508.09 38.9953C1508.09 38.5341 1508.09 38.0729 1508.09 37.5978C1508.3 36.0269 1508.77 34.9678 1509.6 33.6215C1512.2 32.1618 1514.55 32.118 1517.49 32.113ZM1403.5 255.165C1403.5 255.606 1403.5 256.046 1403.5 256.5C1403.12 256.674 1402.74 256.848 1402.36 257.027C1389.1 264.039 1381.52 279.088 1377.2 292.795C1370.38 315.39 1372.17 339.388 1382.72 360.539C1385.18 364.919 1388.23 368.797 1391.49 372.61C1391.9 373.118 1392.31 373.625 1392.73 374.148C1403.39 386.911 1420.61 394.551 1436.95 396.279C1454.12 397.796 1469.76 392.199 1482.91 381.285C1483.48 380.82 1484.06 380.355 1484.65 379.875C1499.02 367.672 1507.38 348.369 1509.6 329.903C1509.79 326.413 1509.83 322.929 1509.81 319.435C1509.8 318.727 1509.8 318.727 1509.8 318.005C1509.71 301.869 1505.73 287.815 1497.59 273.85C1497.15 273.85 1496.71 273.85 1496.25 273.85C1496.08 273.475 1495.91 273.1 1495.74 272.713C1492.44 266.542 1486.61 260.526 1480.9 256.5C1480.46 256.5 1480.02 256.5 1479.57 256.5C1479.57 256.06 1479.57 255.619 1479.57 255.165C1473.26 251.445 1467.15 248.257 1460.22 245.823C1459.73 245.602 1459.23 245.381 1458.72 245.153C1441 238.761 1418.36 244.188 1403.5 255.165Z" fill="black"/>
<path d="M2115.37 149.634C2115.83 149.631 2116.28 149.629 2116.75 149.626C2118.28 149.619 2119.81 149.616 2121.34 149.614C2122.43 149.61 2123.53 149.605 2124.62 149.6C2128.22 149.586 2131.81 149.58 2135.41 149.573C2136.65 149.57 2137.89 149.567 2139.13 149.565C2144.95 149.552 2150.77 149.542 2156.6 149.537C2163.31 149.53 2170.03 149.513 2176.74 149.486C2181.94 149.466 2187.13 149.456 2192.33 149.454C2195.43 149.452 2198.53 149.446 2201.63 149.429C2204.55 149.414 2207.47 149.411 2210.38 149.418C2211.45 149.418 2212.52 149.414 2213.59 149.405C2225.65 149.307 2225.65 149.307 2230.11 153.487C2232.46 156.112 2233.62 159.247 2234.82 162.512C2234.99 162.978 2235.17 163.445 2235.34 163.925C2237.17 168.903 2238.81 173.937 2240.43 178.984C2240.98 180.705 2241.54 182.426 2242.09 184.146C2242.88 186.585 2243.67 189.024 2244.45 191.463C2246.32 197.256 2248.21 203.043 2250.09 208.83C2250.48 210.014 2250.86 211.198 2251.25 212.382C2254.97 223.793 2258.7 235.199 2262.44 246.604C2265.54 256.097 2268.65 265.591 2271.75 275.087C2272.4 277.095 2273.06 279.104 2273.72 281.113C2275.73 287.293 2277.75 293.473 2279.76 299.656C2287.47 324.327 2287.47 324.327 2296.35 348.588C2297.45 346.929 2297.99 345.894 2298.56 344.059C2298.73 343.554 2298.89 343.05 2299.05 342.53C2299.22 341.984 2299.39 341.437 2299.57 340.874C2299.75 340.302 2299.93 339.729 2300.12 339.139C2300.5 337.919 2300.89 336.699 2301.27 335.479C2301.84 333.66 2302.41 331.844 2302.99 330.027C2305.04 323.527 2307.03 317.013 2308.98 310.482C2310.26 306.191 2311.6 301.923 2312.99 297.664C2314.72 292.298 2316.41 286.922 2318.03 281.524C2319.64 276.198 2321.3 270.889 2323 265.592C2323.22 264.889 2323.45 264.185 2323.68 263.46C2324.75 260.133 2325.82 256.808 2326.9 253.484C2329.13 246.607 2331.29 239.712 2333.39 232.795C2333.6 232.111 2333.8 231.427 2334.02 230.723C2335.07 227.258 2336.12 223.792 2337.16 220.326C2337.55 219.03 2337.94 217.734 2338.34 216.439C2338.51 215.848 2338.69 215.257 2338.87 214.648C2339.78 211.641 2340.78 208.699 2341.91 205.766C2342.77 203.414 2343.47 201.011 2344.17 198.606C2344.34 198.061 2344.5 197.515 2344.66 196.953C2345.01 195.795 2345.35 194.636 2345.7 193.477C2346.59 190.469 2347.49 187.463 2348.39 184.458C2348.56 183.871 2348.74 183.284 2348.92 182.679C2350.74 176.578 2352.65 170.504 2354.63 164.45C2355.04 163.16 2355.43 161.863 2355.82 160.565C2357.01 156.692 2358.03 153.819 2361.07 151.066C2364.05 149.83 2366.59 149.563 2369.79 149.558C2370.48 149.554 2370.48 149.554 2371.18 149.55C2372.71 149.543 2374.24 149.546 2375.77 149.549C2376.87 149.546 2377.97 149.542 2379.07 149.538C2382.05 149.529 2385.03 149.529 2388.01 149.531C2390.5 149.531 2392.99 149.528 2395.48 149.525C2401.35 149.518 2407.22 149.517 2413.09 149.521C2419.15 149.525 2425.21 149.517 2431.27 149.503C2436.47 149.491 2441.67 149.487 2446.87 149.489C2449.98 149.49 2453.09 149.489 2456.19 149.479C2459.11 149.471 2462.03 149.472 2464.95 149.481C2466.02 149.483 2467.1 149.481 2468.17 149.475C2469.63 149.468 2471.09 149.474 2472.55 149.482C2473.37 149.482 2474.19 149.482 2475.03 149.482C2477.38 149.755 2478.65 150.317 2480.52 151.734C2482.5 157.202 2478.68 164.226 2476.73 169.334C2476.37 170.296 2476.01 171.259 2475.65 172.222C2473.86 177.038 2471.96 181.798 2469.96 186.532C2468.58 189.884 2467.34 193.288 2466.09 196.693C2465.66 197.85 2465.66 197.85 2465.23 199.03C2463.7 203.172 2462.19 207.318 2460.67 211.465C2460.06 213.145 2459.45 214.824 2458.83 216.504C2458.68 216.922 2458.53 217.341 2458.37 217.772C2455.96 224.368 2453.46 230.928 2450.92 237.474C2448.69 243.24 2446.58 249.043 2444.52 254.869C2443.26 258.406 2441.94 261.903 2440.53 265.382C2439.22 268.661 2438 271.972 2436.76 275.279C2436.25 276.648 2435.74 278.016 2435.23 279.385C2434.48 281.377 2433.74 283.37 2432.99 285.363C2430.92 290.91 2428.84 296.456 2426.76 302.002C2426.55 302.569 2426.34 303.137 2426.12 303.721C2421.68 315.552 2417.21 327.368 2412.7 339.172C2408.78 349.466 2404.94 359.789 2401.15 370.129C2399.06 375.816 2396.95 381.498 2394.81 387.166C2392.38 393.61 2390.02 400.078 2387.66 406.549C2383.94 416.744 2380.19 426.926 2376.38 437.088C2376.18 437.637 2375.97 438.186 2375.76 438.751C2373.47 444.872 2371.13 450.966 2368.68 457.028C2367.51 459.943 2366.37 462.87 2365.23 465.797C2359.62 480.142 2353.96 494.469 2347.77 508.573C2347.49 509.219 2347.2 509.865 2346.91 510.531C2341.64 522.425 2335.48 533.653 2327.91 544.233C2327.13 545.322 2326.36 546.419 2325.59 547.516C2322.65 551.606 2319.42 555.315 2315.99 558.996C2315.38 559.655 2315.38 559.655 2314.75 560.327C2297.02 579.01 2270.86 589.837 2245.21 590.89C2243.27 590.927 2241.34 590.945 2239.4 590.953C2238.68 590.958 2237.97 590.963 2237.23 590.968C2207.06 591.122 2175.96 588.499 2148.19 575.405C2146.53 574.647 2144.85 573.942 2143.16 573.236C2124.68 565.456 2124.68 565.456 2122.18 560.789C2121.45 555.726 2123.45 551.928 2125.56 547.401C2125.9 546.658 2126.23 545.915 2126.58 545.149C2127.55 543.017 2128.53 540.892 2129.52 538.768C2129.75 538.262 2129.99 537.756 2130.23 537.234C2131.16 535.224 2132.1 533.218 2133.04 531.214C2136.93 522.941 2140.58 514.562 2144.16 506.154C2146.7 500.216 2149.24 494.284 2151.88 488.387C2152.14 487.782 2152.41 487.176 2152.68 486.552C2155.26 480.831 2155.26 480.831 2157.55 479.378C2162.51 478.559 2165.49 480.568 2169.64 483.09C2176.91 487.269 2184.15 489.967 2192.25 492.057C2192.82 492.205 2193.39 492.353 2193.98 492.505C2206.98 495.756 2218.07 495.599 2230.02 488.705C2232.3 486.825 2233.3 484.767 2233.96 481.907C2234.06 478.251 2233.2 475.211 2231.87 471.837C2231.69 471.373 2231.52 470.909 2231.33 470.43C2230.77 468.962 2230.19 467.497 2229.62 466.032C2229.44 465.572 2229.25 465.112 2229.07 464.638C2227.78 461.357 2226.47 458.085 2225.15 454.813C2224.74 453.794 2224.34 452.774 2223.93 451.754C2221.12 444.746 2218.28 437.748 2215.42 430.76C2212.17 422.817 2209 414.844 2205.87 406.855C2202.18 397.46 2198.44 388.094 2194.61 378.757C2191.43 370.996 2188.35 363.197 2185.28 355.392C2182.49 348.292 2179.69 341.197 2176.86 334.115C2176.46 333.131 2176.46 333.131 2176.06 332.126C2174.73 328.817 2173.41 325.508 2172.08 322.2C2171.21 320.041 2170.34 317.882 2169.48 315.723C2169.31 315.298 2169.13 314.874 2168.96 314.436C2166.58 308.492 2164.24 302.533 2162 296.535C2160.7 293.061 2159.29 289.639 2157.86 286.218C2155.77 281.185 2153.77 276.116 2151.75 271.056C2151.27 269.852 2150.79 268.648 2150.31 267.445C2149.36 265.078 2148.42 262.712 2147.47 260.345C2145.91 256.435 2144.35 252.526 2142.78 248.618C2142.53 247.98 2142.27 247.342 2142.01 246.685C2140.66 243.313 2139.31 239.941 2137.96 236.57C2137 234.163 2136.03 231.756 2135.07 229.349C2134.87 228.86 2134.68 228.372 2134.47 227.868C2131.09 219.423 2127.75 210.962 2124.42 202.498C2121.74 195.694 2119.03 188.905 2116.26 182.138C2113.96 176.515 2111.67 170.891 2109.42 165.247C2109.17 164.623 2108.91 163.999 2108.65 163.356C2105.49 155.362 2105.49 155.362 2106.96 151.817C2109.2 149.184 2112.08 149.645 2115.37 149.634Z" fill="black"/>
<path d="M1094.66 142.183C1095.14 142.185 1095.62 142.186 1096.11 142.188C1127.97 142.358 1156.66 154.255 1179.03 176.857C1201.32 200.566 1208.76 232.026 1208.74 263.752C1208.74 264.708 1208.74 265.664 1208.75 266.62C1208.75 269.215 1208.75 271.811 1208.75 274.407C1208.75 277.218 1208.76 280.029 1208.76 282.84C1208.77 288.968 1208.78 295.096 1208.78 301.224C1208.78 305.052 1208.78 308.88 1208.79 312.708C1208.8 323.315 1208.8 333.923 1208.8 344.53C1208.8 345.207 1208.8 345.884 1208.8 346.582C1208.8 347.261 1208.81 347.939 1208.81 348.638C1208.81 350.013 1208.81 351.388 1208.81 352.763C1208.81 353.445 1208.81 354.127 1208.81 354.829C1208.81 365.905 1208.82 376.982 1208.84 388.058C1208.85 399.441 1208.86 410.823 1208.86 422.206C1208.86 428.593 1208.87 434.98 1208.88 441.367C1208.89 446.798 1208.89 452.229 1208.89 457.66C1208.88 460.431 1208.88 463.202 1208.89 465.973C1208.9 468.509 1208.9 471.044 1208.89 473.579C1208.89 474.933 1208.9 476.286 1208.91 477.64C1208.9 478.442 1208.9 479.245 1208.89 480.072C1208.89 480.764 1208.89 481.457 1208.9 482.171C1208.51 485.044 1207.39 486.799 1205.13 488.58C1202.9 489.567 1201.26 489.64 1198.83 489.642C1198.17 489.647 1198.17 489.647 1197.49 489.652C1196.02 489.66 1194.54 489.653 1193.07 489.647C1192.01 489.65 1190.95 489.653 1189.89 489.658C1187.02 489.667 1184.15 489.663 1181.27 489.657C1178.26 489.652 1175.26 489.657 1172.25 489.66C1167.19 489.663 1162.14 489.659 1157.09 489.649C1151.25 489.638 1145.41 489.642 1139.57 489.653C1134.56 489.662 1129.54 489.663 1124.53 489.658C1121.53 489.655 1118.54 489.654 1115.55 489.661C1112.73 489.667 1109.91 489.663 1107.1 489.651C1106.07 489.648 1105.03 489.649 1104 489.654C1102.59 489.659 1101.18 489.652 1099.77 489.642C1098.58 489.641 1098.58 489.641 1097.38 489.64C1094.36 489.29 1092.08 488.325 1089.99 486.093C1088.69 483.828 1088.45 481.733 1088.44 479.148C1088.44 478.569 1088.43 477.99 1088.43 477.393C1088.43 476.76 1088.43 476.127 1088.43 475.475C1088.43 474.462 1088.43 474.462 1088.42 473.428C1088.41 471.158 1088.41 468.888 1088.41 466.618C1088.4 464.992 1088.39 463.366 1088.39 461.74C1088.38 458.231 1088.37 454.722 1088.36 451.213C1088.35 446.114 1088.33 441.016 1088.31 435.917C1088.28 427.611 1088.26 419.305 1088.23 410.999C1088.23 410.501 1088.23 410.004 1088.23 409.492C1088.22 406.976 1088.21 404.459 1088.21 401.943C1088.19 396.951 1088.18 391.959 1088.16 386.967C1088.16 386.476 1088.16 385.986 1088.16 385.481C1088.13 377.23 1088.11 368.98 1088.08 360.73C1088.06 356.111 1088.05 351.493 1088.04 346.874C1088.01 324.007 1088.01 324.007 1087.68 301.143C1087.66 300.198 1087.64 299.252 1087.62 298.307C1087.41 285.681 1084.46 273.455 1075.85 263.84C1066.3 254.893 1054.57 250.029 1041.49 249.577C1027.71 250.053 1015.48 255.384 1005.95 265.433C995.989 277.023 993 292.593 993.016 307.481C993.014 308.227 993.012 308.973 993.01 309.741C993.004 312.229 993.003 314.717 993.002 317.205C992.999 318.993 992.996 320.781 992.992 322.569C992.985 326.414 992.979 330.26 992.975 334.105C992.968 340.183 992.954 346.262 992.939 352.341C992.934 354.423 992.929 356.505 992.924 358.587C992.923 359.368 992.923 359.368 992.921 360.164C992.907 366.077 992.894 371.991 992.882 377.904C992.881 378.444 992.88 378.984 992.879 379.541C992.861 388.303 992.849 397.066 992.838 405.829C992.826 414.833 992.807 423.837 992.781 432.842C992.766 438.392 992.756 443.942 992.755 449.493C992.754 453.294 992.745 457.096 992.731 460.898C992.723 463.091 992.719 465.283 992.722 467.476C992.724 469.854 992.715 472.232 992.702 474.61C992.706 475.302 992.709 475.993 992.713 476.705C992.678 480.559 992.302 483.319 990.439 486.719C987.69 489.296 985.158 489.472 981.5 489.482C980.848 489.485 980.848 489.485 980.182 489.488C978.723 489.494 977.263 489.495 975.803 489.496C974.757 489.499 973.711 489.502 972.666 489.506C969.823 489.514 966.98 489.519 964.137 489.522C962.361 489.524 960.585 489.526 958.808 489.529C953.252 489.538 947.695 489.545 942.138 489.547C935.723 489.55 929.308 489.562 922.893 489.582C917.935 489.596 912.977 489.603 908.019 489.604C905.057 489.604 902.096 489.608 899.134 489.62C896.348 489.631 893.562 489.633 890.776 489.627C889.754 489.626 888.733 489.629 887.711 489.636C886.314 489.644 884.918 489.64 883.521 489.633C882.74 489.634 881.959 489.635 881.154 489.636C878.142 489.289 875.867 488.318 873.786 486.093C872.061 483.098 872.231 480.034 872.239 476.657C872.237 476.107 872.236 475.556 872.234 474.989C872.231 473.133 872.232 471.277 872.233 469.421C872.231 468.081 872.229 466.742 872.227 465.403C872.221 461.712 872.22 458.022 872.22 454.332C872.218 450.356 872.213 446.38 872.209 442.404C872.199 433.252 872.195 424.1 872.192 414.948C872.191 410.426 872.188 405.905 872.186 401.383C872.177 385.907 872.17 370.432 872.168 354.956C872.168 353.984 872.167 353.013 872.167 352.041C872.167 351.067 872.167 350.094 872.167 349.12C872.167 347.166 872.166 345.212 872.166 343.258C872.166 342.774 872.166 342.29 872.166 341.79C872.163 326.079 872.153 310.368 872.137 294.656C872.121 278.048 872.112 261.44 872.111 244.832C872.111 243.01 872.111 241.187 872.11 239.364C872.11 238.916 872.11 238.467 872.11 238.004C872.11 230.778 872.102 223.552 872.092 216.326C872.083 209.065 872.081 201.803 872.086 194.542C872.089 190.608 872.088 186.673 872.079 182.738C872.07 179.138 872.071 175.538 872.079 171.937C872.08 170.633 872.078 169.329 872.072 168.025C872.065 166.255 872.07 164.485 872.078 162.715C872.073 162.206 872.068 161.698 872.063 161.174C872.096 157.782 872.761 155.423 874.328 152.401C877.092 149.81 879.64 149.647 883.317 149.638C883.757 149.636 884.198 149.634 884.651 149.632C886.13 149.626 887.608 149.625 889.087 149.624C890.145 149.621 891.204 149.618 892.263 149.614C895.142 149.606 898.021 149.601 900.9 149.598C902.698 149.596 904.496 149.594 906.295 149.591C911.922 149.582 917.548 149.575 923.175 149.572C929.671 149.57 936.166 149.558 942.662 149.538C947.682 149.524 952.703 149.517 957.724 149.516C960.722 149.516 963.721 149.512 966.72 149.5C969.541 149.489 972.362 149.487 975.184 149.493C976.218 149.494 977.253 149.491 978.287 149.484C979.702 149.476 981.116 149.48 982.53 149.487C983.321 149.486 984.112 149.485 984.927 149.484C987.39 149.765 988.998 150.446 991.106 151.734C992.485 154.096 992.604 156.179 992.592 158.879C992.592 160.001 992.592 160.001 992.592 161.146C992.585 161.946 992.578 162.746 992.571 163.571C992.569 164.395 992.567 165.22 992.565 166.07C992.559 168.254 992.547 170.438 992.532 172.622C992.518 174.854 992.512 177.086 992.506 179.319C992.491 183.692 992.469 188.066 992.44 192.439C994.207 193.414 995.039 193.774 997.112 193.774C998.109 192.89 998.109 192.89 999.017 191.673C999.375 191.225 999.732 190.778 1000.1 190.317C1000.48 189.833 1000.85 189.35 1001.24 188.852C1001.63 188.363 1002.02 187.873 1002.42 187.369C1004.06 185.311 1005.68 183.239 1007.29 181.16C1015.92 170.089 1026.31 162.446 1038.48 155.738C1038.89 155.513 1039.29 155.288 1039.71 155.057C1048.19 150.388 1057.27 147.646 1066.59 145.228C1067.34 145.029 1067.34 145.029 1068.11 144.826C1076.84 142.662 1085.71 142.133 1094.66 142.183Z" fill="black"/>
<path d="M749.543 167.749C749.943 168.02 750.343 168.291 750.755 168.569C759.054 174.209 766.593 180.55 773.566 187.768C774.1 188.3 774.634 188.833 775.185 189.382C780.772 194.986 785.702 200.748 790.133 207.297C790.867 208.383 791.615 209.46 792.362 210.537C799.885 221.732 805.904 233.974 810.315 246.707C810.963 248.573 811.633 250.431 812.303 252.29C820.848 276.44 823.739 301.598 823.737 327.096C823.739 329.207 823.751 331.318 823.763 333.429C823.765 334.79 823.767 336.151 823.767 337.512C823.772 338.133 823.777 338.755 823.782 339.395C823.749 348.805 823.749 348.805 821.136 351.976C819.296 353.522 818.362 353.641 815.986 353.754C815.275 353.791 814.563 353.828 813.83 353.866C810.166 353.964 806.508 354.013 802.843 354.002C801.997 354.002 801.151 354.002 800.28 354.002C797.956 354.002 795.633 353.998 793.309 353.994C790.794 353.989 788.279 353.989 785.764 353.988C781.413 353.986 777.062 353.982 772.712 353.976C766.416 353.968 760.121 353.964 753.825 353.961C743.603 353.956 733.38 353.949 723.158 353.94C722.547 353.939 721.936 353.939 721.307 353.938C716.97 353.934 712.633 353.93 708.296 353.926C703.335 353.921 698.375 353.917 693.415 353.912C692.804 353.912 692.193 353.911 691.563 353.911C681.373 353.901 671.183 353.895 660.993 353.89C654.713 353.887 648.433 353.882 642.152 353.874C637.852 353.868 633.552 353.865 629.251 353.863C626.771 353.862 624.29 353.86 621.81 353.855C619.12 353.85 616.431 353.85 613.742 353.85C612.959 353.848 612.175 353.845 611.368 353.843C605.382 353.423 605.382 353.423 600.068 355.261C600.068 367.27 609.107 379.851 617.024 388.238C619.769 390.968 622.869 393.166 626.092 395.299C626.89 395.85 626.89 395.85 627.703 396.412C645.112 407.736 667.996 408.676 687.737 404.77C707.185 400.633 722.619 391.641 737.24 378.402C739.495 376.468 741.407 374.977 744.413 374.612C750.748 375.153 756.221 381.803 760.655 385.886C762.081 387.165 763.534 388.342 765.058 389.501C767.729 391.535 770.275 393.689 772.815 395.882C776.794 399.315 780.828 402.667 784.91 405.975C785.829 406.726 786.749 407.477 787.668 408.228C788.639 409.02 789.611 409.812 790.582 410.605C791.046 410.984 791.51 411.363 791.988 411.754C792.426 412.11 792.863 412.466 793.314 412.833C793.899 413.311 793.899 413.311 794.496 413.798C795.491 414.575 796.538 415.284 797.589 415.985C797.589 416.425 797.589 416.866 797.589 417.319C797.945 417.479 798.301 417.639 798.668 417.804C800.703 418.892 802.49 420.202 804.345 421.574C805.049 422.088 805.752 422.602 806.477 423.132C809.055 425.334 809.055 425.334 809.6 427.329C809.539 431.016 807.809 433.094 805.429 435.712C804.867 436.344 804.867 436.344 804.293 436.989C795.873 446.304 787.096 455.325 776.902 462.696C775.999 463.382 775.999 463.382 775.078 464.083C762.544 473.501 748.853 480.595 734.195 486.051C733.383 486.359 732.571 486.667 731.734 486.985C717.916 491.915 703.306 494.147 688.819 496.061C687.767 496.206 686.716 496.351 685.665 496.496C669.44 498.694 653.009 498.801 636.769 496.728C636.077 496.642 635.385 496.556 634.672 496.468C618.061 494.355 602.117 490.714 586.722 484.05C585.859 483.692 584.996 483.335 584.133 482.978C566.009 475.353 550.34 464.573 535.339 452.019C534.783 451.559 534.226 451.099 533.653 450.625C531.013 448.39 528.743 445.995 526.511 443.355C525.329 442.008 524.082 440.785 522.786 439.549C519.219 436.023 516.278 432.029 513.319 427.996C512.831 427.338 512.343 426.68 511.841 426.002C504.736 416.096 498.938 405.443 494.534 394.083C494.004 392.724 493.452 391.376 492.893 390.028C485.992 373.029 483.617 354.604 482.122 336.451C482.057 335.667 482.057 335.667 481.99 334.868C481.138 324.435 481.203 314.221 482.081 303.795C482.146 303.015 482.146 303.015 482.212 302.219C484.614 273.992 492.392 248.258 506.479 223.677C506.786 223.141 507.093 222.606 507.409 222.054C508.993 219.338 510.648 216.891 512.651 214.46C513.361 213.48 514.064 212.495 514.763 211.507C515.139 210.976 515.516 210.444 515.904 209.897C516.691 208.785 517.474 207.671 518.256 206.555C518.631 206.029 519.006 205.502 519.392 204.959C519.732 204.477 520.071 203.995 520.421 203.498C520.72 203.152 521.018 202.806 521.326 202.449C521.767 202.449 522.207 202.449 522.661 202.449C522.933 201.855 522.933 201.855 523.21 201.25C523.982 199.805 524.77 198.798 525.888 197.611C526.264 197.209 526.64 196.807 527.027 196.393C527.43 195.969 527.834 195.545 528.249 195.108C528.668 194.666 529.087 194.223 529.519 193.767C530.788 192.43 532.062 191.1 533.338 189.77C533.691 189.397 534.045 189.024 534.41 188.64C539.442 183.348 544.827 178.774 550.687 174.422C551.071 174.135 551.455 173.847 551.85 173.551C599.978 137.69 671.954 131.989 749.543 167.749ZM614.837 248.823C613.269 250.298 613.269 250.298 613.414 251.829C612.973 251.829 612.533 251.829 612.079 251.829C610.968 253.393 609.949 254.949 608.951 256.583C608.653 257.069 608.356 257.554 608.049 258.054C602.586 267.068 596.731 277.684 596.731 288.53C598.01 290.156 598.723 290.529 600.735 291.2C602.141 291.264 603.549 291.287 604.956 291.289C605.601 291.291 605.601 291.291 606.259 291.293C607.702 291.298 609.145 291.297 610.588 291.297C611.621 291.299 612.655 291.301 613.689 291.303C616.498 291.309 619.308 291.311 622.118 291.311C624.463 291.312 626.808 291.314 629.153 291.317C634.685 291.322 640.217 291.324 645.749 291.323C651.457 291.323 657.165 291.33 662.873 291.34C667.772 291.349 672.672 291.353 677.571 291.352C680.498 291.352 683.424 291.354 686.351 291.361C689.104 291.368 691.857 291.368 694.609 291.363C695.62 291.362 696.63 291.364 697.64 291.368C699.019 291.373 700.399 291.37 701.778 291.365C702.55 291.365 703.322 291.365 704.117 291.366C706.344 291.185 708.533 290.837 710.172 289.198C711.365 275.359 702.936 260.08 694.535 249.725C691.124 245.702 687.148 242.784 682.813 239.817C682.215 239.4 681.617 238.983 681.001 238.553C659.384 224.637 631.812 231.129 614.837 248.823Z" fill="black"/>
<path d="M2018.03 28.0725C2019.84 28.0756 2021.64 28.071 2023.44 28.0588C2044.07 27.9207 2064.9 29.3551 2084.94 34.5808C2085.42 34.7015 2085.9 34.8223 2086.4 34.9467C2089.57 35.8392 2091.43 37.0602 2093.49 39.6273C2094.14 41.582 2094.24 43.3812 2094.25 45.4323C2094.25 46.06 2094.26 46.6877 2094.26 47.3345C2094.26 48.0185 2094.26 48.7025 2094.26 49.4072C2094.27 50.1312 2094.27 50.8552 2094.27 51.6011C2094.28 53.997 2094.29 56.3928 2094.29 58.7887C2094.29 60.4525 2094.3 62.1164 2094.3 63.7802C2094.31 66.823 2094.31 69.8657 2094.31 72.9085C2094.32 76.9383 2094.32 80.968 2094.34 84.9977C2094.36 89.3231 2094.37 93.6485 2094.37 97.974C2094.37 99.6233 2094.38 101.273 2094.39 102.922C2094.4 105.227 2094.4 107.532 2094.39 109.837C2094.4 110.52 2094.4 111.202 2094.41 111.906C2094.38 117.75 2094.38 117.75 2092.15 120.371C2087.84 122.528 2080.24 119.649 2075.76 118.702C2067.56 116.977 2059.96 116.233 2051.57 116.2C2050.71 116.186 2049.85 116.172 2048.96 116.158C2040.64 116.125 2031.74 117.283 2025.27 123.022C2018.48 130.226 2016.59 137.847 2016.64 147.469C2016.72 149.278 2016.94 150.68 2017.41 152.401C2021.48 153.588 2025.08 153.913 2029.3 153.855C2029.93 153.852 2030.56 153.849 2031.21 153.846C2032.58 153.839 2033.94 153.829 2035.31 153.816C2037.47 153.795 2039.63 153.784 2041.79 153.776C2047.92 153.749 2054.06 153.706 2060.2 153.658C2063.96 153.629 2067.72 153.611 2071.49 153.598C2072.92 153.591 2074.35 153.58 2075.78 153.565C2077.78 153.544 2079.78 153.535 2081.78 153.53C2082.36 153.52 2082.95 153.511 2083.56 153.501C2086.89 153.506 2089.35 153.729 2092.15 155.738C2094.84 159.297 2094.44 163.35 2094.41 167.616C2094.42 168.8 2094.42 168.8 2094.42 170.008C2094.43 172.164 2094.43 174.32 2094.42 176.477C2094.42 178.737 2094.42 180.998 2094.43 183.258C2094.43 187.053 2094.42 190.848 2094.42 194.643C2094.4 199.026 2094.41 203.409 2094.42 207.793C2094.43 211.561 2094.43 215.33 2094.42 219.099C2094.42 221.348 2094.42 223.596 2094.43 225.845C2094.43 228.351 2094.42 230.857 2094.41 233.364C2094.42 234.107 2094.42 234.85 2094.43 235.615C2094.42 236.299 2094.41 236.983 2094.41 237.687C2094.41 238.279 2094.41 238.871 2094.41 239.481C2094 242.171 2092.79 243.944 2090.74 245.685C2088.02 246.822 2085.61 246.744 2082.69 246.697C2082.08 246.695 2081.47 246.693 2080.84 246.691C2078.82 246.683 2076.8 246.661 2074.79 246.639C2073.38 246.632 2071.98 246.626 2070.57 246.621C2066.87 246.606 2063.17 246.58 2059.47 246.55C2053.56 246.503 2047.64 246.466 2041.72 246.442C2039.66 246.431 2037.59 246.411 2035.53 246.391C2034.26 246.384 2032.99 246.377 2031.72 246.371C2031.15 246.363 2030.58 246.355 2029.99 246.347C2026.65 246.34 2023.9 246.672 2020.75 247.825C2018.28 250.376 2018 252.819 2018 256.259C2018 257.047 2018 257.835 2018 258.647C2018 259.518 2018.01 260.388 2018.01 261.285C2018.01 262.215 2018.01 263.146 2018.01 264.076C2018.01 266.639 2018.02 269.202 2018.02 271.765C2018.03 274.528 2018.03 277.29 2018.03 280.052C2018.04 284.841 2018.04 289.629 2018.05 294.418C2018.06 301.349 2018.07 308.279 2018.07 315.21C2018.08 326.462 2018.09 337.714 2018.1 348.967C2018.11 349.641 2018.11 350.314 2018.11 351.009C2018.12 360.566 2018.13 370.123 2018.14 379.68C2018.14 380.353 2018.15 381.026 2018.15 381.719C2018.15 382.726 2018.15 382.726 2018.15 383.754C2018.16 394.959 2018.17 406.164 2018.18 417.368C2018.18 424.28 2018.19 431.192 2018.21 438.103C2018.22 442.842 2018.22 447.58 2018.22 452.318C2018.22 455.052 2018.22 457.785 2018.23 460.519C2018.24 463.023 2018.24 465.527 2018.24 468.032C2018.24 469.363 2018.24 470.694 2018.25 472.025C2018.22 482.845 2018.22 482.845 2015.2 486.677C2012.1 489.059 2009.6 489.555 2005.72 489.562C2004.84 489.567 2003.96 489.571 2003.06 489.576C2002.08 489.575 2001.11 489.573 2000.14 489.571C1999.12 489.574 1998.09 489.578 1997.06 489.582C1994.28 489.591 1991.5 489.591 1988.71 489.589C1986.39 489.588 1984.06 489.592 1981.74 489.595C1976.25 489.602 1970.77 489.603 1965.28 489.599C1959.63 489.595 1953.97 489.603 1948.31 489.617C1943.45 489.629 1938.59 489.633 1933.73 489.631C1930.83 489.629 1927.93 489.631 1925.03 489.64C1922.3 489.649 1919.58 489.648 1916.85 489.639C1915.85 489.637 1914.85 489.639 1913.85 489.645C1912.48 489.652 1911.11 489.646 1909.74 489.638C1908.98 489.638 1908.22 489.638 1907.43 489.638C1904.99 489.351 1903.39 488.648 1901.3 487.386C1898.93 484.191 1898.55 481.418 1898.56 477.513C1898.56 476.321 1898.56 476.321 1898.56 475.105C1898.56 474.231 1898.56 473.357 1898.57 472.457C1898.57 471.52 1898.57 470.582 1898.57 469.645C1898.57 467.067 1898.58 464.489 1898.59 461.911C1898.59 459.132 1898.6 456.352 1898.6 453.573C1898.61 448.755 1898.62 443.938 1898.63 439.12C1898.64 431.505 1898.65 423.89 1898.66 416.276C1898.66 413.671 1898.66 411.066 1898.67 408.461C1898.67 407.81 1898.67 407.159 1898.67 406.488C1898.68 399.076 1898.68 391.664 1898.69 384.253C1898.7 383.575 1898.7 382.897 1898.7 382.199C1898.71 371.219 1898.73 360.239 1898.75 349.258C1898.78 337.986 1898.79 326.715 1898.8 315.443C1898.8 308.49 1898.81 301.536 1898.83 294.583C1898.84 289.818 1898.85 285.052 1898.85 280.287C1898.85 277.537 1898.85 274.788 1898.86 272.038C1898.88 269.52 1898.88 267.001 1898.87 264.483C1898.87 263.143 1898.88 261.803 1898.89 260.463C1898.87 256.01 1898.66 252.498 1896.63 248.492C1892.35 245.28 1886.99 246.623 1881.95 247.158C1881.33 247.224 1880.7 247.29 1880.06 247.359C1879.51 247.416 1878.97 247.474 1878.41 247.533C1872.69 248.122 1867.24 248.491 1862.14 245.406C1857.99 241.137 1857.68 237.27 1857.73 231.567C1857.78 229.837 1857.83 228.18 1858.27 226.499C1858.62 225.046 1858.68 223.778 1858.69 222.284C1858.69 221.719 1858.7 221.154 1858.7 220.572C1858.7 219.958 1858.7 219.343 1858.7 218.711C1858.71 218.059 1858.71 217.408 1858.71 216.737C1858.72 215.323 1858.73 213.909 1858.73 212.495C1858.74 210.257 1858.75 208.019 1858.77 205.781C1858.81 199.417 1858.84 193.054 1858.86 186.69C1858.88 182.797 1858.9 178.905 1858.93 175.012C1858.94 173.529 1858.95 172.046 1858.95 170.563C1858.95 168.488 1858.97 166.413 1858.99 164.339C1858.98 163.421 1858.98 163.421 1858.98 162.485C1859.02 159.086 1859.33 156.655 1861.27 153.736C1865.8 150.9 1870.84 151.38 1875.99 152.067C1879.1 152.445 1882.2 152.549 1885.33 152.61C1885.84 152.629 1886.34 152.649 1886.86 152.67C1890.49 152.708 1893.79 152.14 1896.63 149.732C1898.98 146.359 1899.62 144.269 1899.47 140.082C1899.45 139.119 1899.42 138.156 1899.4 137.193C1899.38 136.694 1899.37 136.195 1899.35 135.68C1898.47 107.241 1906.57 79.2344 1926.06 58.038C1935.9 47.6545 1947.99 40.4954 1961.36 35.6235C1962.14 35.3284 1962.92 35.0334 1963.73 34.7294C1968.45 33.0334 1973.17 31.8025 1978.09 30.8272C1978.59 30.7239 1979.1 30.6206 1979.62 30.5141C1992.29 28.1674 2005.19 28.0488 2018.03 28.0725Z" fill="black"/>
<path d="M10.0567 0.162773C10.8509 0.158962 11.6452 0.155152 12.4634 0.151226C13.3326 0.15048 14.2017 0.149734 15.0971 0.148966C16.0235 0.145876 16.9498 0.142523 17.8762 0.138926C20.3911 0.130181 22.9059 0.12587 25.4208 0.122904C26.9929 0.120946 28.565 0.118206 30.1371 0.115227C35.0587 0.106105 39.9802 0.0996527 44.9017 0.097075C50.5779 0.0940855 56.2539 0.0823761 61.9301 0.0630423C66.321 0.0486065 70.712 0.0418858 75.1029 0.0409943C77.7239 0.0402958 80.3448 0.0363709 82.9657 0.0244322C85.4321 0.0134157 87.8984 0.0120053 90.3648 0.0178519C91.6971 0.0186089 93.0294 0.00947003 94.3616 0C98.5936 0.0196626 101.905 0.087639 105.598 2.25839C107.669 5.19795 107.11 9.26145 107.086 12.7215C107.086 13.448 107.086 14.1746 107.086 14.9231C107.083 17.3468 107.071 19.7703 107.057 22.194C107.053 23.8917 107.048 25.5894 107.044 27.2871C106.973 48.7517 106.618 70.2151 106.265 91.6767C107.073 91.6732 107.882 91.6697 108.715 91.6661C119.379 91.625 130.043 91.6355 140.707 91.6714C141.795 91.675 142.882 91.6785 143.97 91.6818C151.251 91.7043 158.533 91.7395 165.814 91.8005C168.875 91.826 171.937 91.8471 174.999 91.8573C177.919 91.8674 180.838 91.8901 183.758 91.9224C184.843 91.9323 185.929 91.9376 187.015 91.9382C188.512 91.9398 190.009 91.9578 191.506 91.9797C192.349 91.9856 193.191 91.9916 194.06 91.9977C196.86 92.4209 198.229 93.1449 200.354 95.0132C203.06 99.2542 202.634 103.842 202.605 108.738C202.606 109.653 202.609 110.569 202.612 111.485C202.618 113.961 202.612 116.437 202.603 118.913C202.596 121.508 202.598 124.103 202.6 126.699C202.6 131.055 202.593 135.411 202.581 139.768C202.567 144.801 202.564 149.835 202.568 154.868C202.572 159.716 202.568 164.564 202.561 169.412C202.558 171.473 202.557 173.534 202.559 175.595C202.56 178.021 202.554 180.448 202.544 182.874C202.54 184.188 202.542 185.501 202.545 186.814C202.54 187.598 202.535 188.382 202.53 189.19C202.529 189.87 202.528 190.55 202.526 191.25C202.27 194.052 201.544 195.873 199.645 197.944C195.038 200.689 188.499 199.872 183.279 199.855C182.458 199.855 181.637 199.855 180.792 199.855C178.559 199.855 176.325 199.852 174.092 199.847C171.752 199.843 169.411 199.843 167.071 199.842C162.647 199.84 158.223 199.834 153.799 199.827C148.759 199.82 143.719 199.816 138.68 199.813C128.32 199.806 117.96 199.794 107.6 199.779C107.654 221.185 107.716 242.59 107.786 263.995C107.795 266.524 107.803 269.052 107.811 271.58C107.813 272.084 107.815 272.587 107.816 273.105C107.843 281.25 107.865 289.396 107.885 297.541C107.906 305.901 107.931 314.261 107.962 322.621C107.98 327.778 107.995 332.935 108.005 338.092C108.013 342.049 108.028 346.007 108.045 349.964C108.051 351.585 108.055 353.206 108.056 354.828C108.058 357.043 108.069 359.259 108.081 361.475C108.079 362.434 108.079 362.434 108.077 363.413C108.118 368.287 108.294 374.087 111.603 377.949C116.993 381.546 122.754 381.384 129.012 381.39C129.743 381.394 130.474 381.397 131.227 381.401C132.808 381.408 134.389 381.414 135.969 381.418C138.471 381.426 140.973 381.439 143.474 381.454C150.585 381.495 157.696 381.531 164.806 381.553C169.16 381.567 173.514 381.591 177.867 381.62C179.526 381.63 181.185 381.636 182.843 381.638C185.159 381.641 187.475 381.656 189.791 381.675C190.477 381.673 191.163 381.671 191.869 381.669C198.1 381.741 198.1 381.741 200.354 383.954C202.813 388.56 202.636 393.088 202.605 398.217C202.606 399.111 202.609 400.005 202.612 400.899C202.618 403.313 202.612 405.727 202.603 408.141C202.596 410.674 202.598 413.207 202.6 415.741C202.6 419.993 202.593 424.245 202.581 428.498C202.567 433.407 202.564 438.315 202.568 443.224C202.572 447.957 202.568 452.69 202.561 457.423C202.558 459.433 202.557 461.442 202.559 463.452C202.56 465.82 202.554 468.187 202.544 470.555C202.54 471.833 202.542 473.111 202.545 474.39C202.488 483.655 202.488 483.655 199.395 487.303C197.029 489.265 195.339 489.472 192.366 489.477C191.68 489.48 190.995 489.483 190.289 489.486C189.161 489.485 189.161 489.485 188.011 489.485C186.822 489.488 186.822 489.488 185.61 489.492C183.432 489.497 181.254 489.499 179.076 489.5C177.71 489.5 176.344 489.501 174.978 489.503C170.194 489.509 165.411 489.512 160.628 489.512C156.2 489.511 151.773 489.518 147.345 489.529C143.525 489.538 139.706 489.541 135.886 489.541C133.613 489.54 131.341 489.542 129.068 489.549C103.232 489.617 103.232 489.617 92.2517 486.594C91.7078 486.449 91.1639 486.304 90.6036 486.154C88.9226 485.694 87.2502 485.21 85.5786 484.717C85.0423 484.561 84.506 484.406 83.9534 484.246C55.0456 475.656 29.1894 453.765 14.8448 427.329C13.1818 424.056 11.6351 420.728 10.1331 417.379C9.70541 416.428 9.2703 415.48 8.82879 414.535C7.15772 410.909 5.89093 407.268 4.79354 403.431C4.63139 402.902 4.46925 402.372 4.30219 401.827C0.81798 389.748 0.529221 377.497 0.521739 365.018C0.513518 363.289 0.504459 361.56 0.494634 359.831C0.472508 355.658 0.460679 351.485 0.452642 347.312C0.442919 342.442 0.423163 337.573 0.4032 332.703C0.367963 324.015 0.342361 315.327 0.322005 306.639C0.302281 298.223 0.274587 289.806 0.238592 281.389C0.199284 272.195 0.164228 263.001 0.136677 253.807C0.133735 252.826 0.130791 251.846 0.127846 250.865C0.126405 250.383 0.124963 249.901 0.123478 249.404C0.113086 246.014 0.0997823 242.624 0.0854249 239.234C0.0662532 234.675 0.0544559 230.116 0.0475662 225.557C0.0439759 223.884 0.0380904 222.212 0.0297384 220.54C0.0187261 218.258 0.01606 215.975 0.01551 213.693C0.00783247 212.701 0.00783267 212.701 0 211.69C0.0109256 207.396 0.0320558 203.021 2.74993 199.487C5.25191 197.648 7.66278 197.691 10.7048 197.672C11.8894 197.662 11.8894 197.662 13.0979 197.652C13.9619 197.648 14.8259 197.644 15.716 197.641C16.6368 197.634 17.5576 197.627 18.4784 197.62C20.9764 197.602 23.4744 197.588 25.9724 197.575C28.5837 197.561 31.1949 197.542 33.8061 197.524C38.75 197.491 43.694 197.461 48.638 197.432C54.2668 197.399 59.8957 197.363 65.5245 197.326C77.1027 197.25 88.681 197.178 100.259 197.11C97.6301 192.757 95.0174 188.799 91.3742 185.242C90.9818 184.849 90.5895 184.455 90.1853 184.049C88.9115 182.774 87.6285 181.508 86.345 180.243C85.4465 179.347 84.5486 178.452 83.6511 177.555C81.7807 175.69 79.9061 173.829 78.0278 171.972C75.625 169.595 73.2296 167.212 70.8368 164.825C68.5431 162.538 66.2461 160.255 63.9487 157.971C63.514 157.539 63.0792 157.106 62.6313 156.661C61.3973 155.435 60.1611 154.211 58.9241 152.988C58.5628 152.628 58.2015 152.269 57.8293 151.898C55.8273 149.924 53.7582 148.128 51.5463 146.395C50.42 145.298 49.3083 144.184 48.2098 143.059C47.6111 142.46 47.0124 141.861 46.3956 141.245C10.841 105.69 10.841 105.69 9.14142 103.988C8.10923 102.957 7.07393 101.93 6.0343 100.907C5.35819 100.24 5.35819 100.24 4.66842 99.5592C4.2108 99.1093 3.75318 98.6594 3.28169 98.1959C1.11808 95.9059 1.35409 93.6497 1.2876 90.6549C1.26658 89.8356 1.26658 89.8356 1.24512 88.9998C1.19945 87.1118 1.16053 85.2237 1.12338 83.3354C1.11014 82.6763 1.09689 82.0171 1.08325 81.338C0.793219 66.2009 0.695691 51.0597 0.640524 35.9201C0.630093 33.1599 0.61348 30.3999 0.591772 27.6398C0.566286 24.3371 0.554102 21.0347 0.551832 17.7319C0.548841 16.4952 0.541267 15.2585 0.528932 14.0219C0.512772 12.3146 0.513221 10.6081 0.517829 8.90077C0.509279 8.39905 0.500729 7.89733 0.491919 7.3804C0.51465 5.1118 0.664014 3.82207 2.01882 1.96836C4.58816 0.157176 6.96823 0.171655 10.0567 0.162773Z" fill="black"/>
<path d="M451.51 144.143C452.194 144.129 452.194 144.129 452.891 144.115C455.927 144.144 458.081 144.693 460.602 146.395C462.029 149.09 462.105 151.442 462.11 154.459C462.113 154.927 462.115 155.396 462.118 155.878C462.125 157.443 462.122 159.008 462.12 160.573C462.123 161.696 462.126 162.82 462.13 163.944C462.139 166.993 462.139 170.043 462.138 173.093C462.137 175.64 462.14 178.187 462.143 180.734C462.151 186.744 462.151 192.754 462.147 198.764C462.143 204.962 462.151 211.159 462.165 217.356C462.177 222.679 462.181 228.002 462.179 233.325C462.178 236.504 462.18 239.682 462.189 242.86C462.197 245.849 462.196 248.839 462.187 251.828C462.186 252.924 462.187 254.019 462.193 255.115C462.2 256.614 462.194 258.112 462.186 259.611C462.186 260.868 462.186 260.868 462.186 262.15C461.892 264.926 461.193 266.697 459.934 269.179C457.813 270.863 455.442 270.745 452.803 270.865C451.907 270.911 451.011 270.957 450.115 271.003C449.648 271.025 449.181 271.047 448.699 271.07C434.159 271.767 419.929 273.049 406.55 279.188C405.792 279.532 405.033 279.876 404.251 280.231C383.904 289.89 370.199 307.95 362.658 328.817C355.4 349.755 355.729 371.882 355.806 393.755C355.818 397.289 355.824 400.824 355.83 404.358C355.846 414.397 355.87 424.436 355.9 434.475C355.916 440.044 355.928 445.613 355.934 451.183C355.938 454.692 355.949 458.202 355.964 461.712C355.971 463.893 355.974 466.074 355.974 468.255C355.976 469.262 355.979 470.269 355.986 471.276C356.057 483.345 356.057 483.345 353.291 486.969C350.308 489.185 347.708 489.555 344.038 489.557C343.599 489.56 343.159 489.562 342.707 489.564C341.24 489.569 339.774 489.565 338.307 489.561C337.254 489.563 336.2 489.565 335.147 489.568C332.288 489.574 329.43 489.572 326.572 489.567C323.581 489.564 320.589 489.567 317.597 489.569C312.573 489.572 307.549 489.568 302.525 489.562C296.718 489.555 290.911 489.557 285.103 489.564C280.116 489.57 275.129 489.571 270.142 489.568C267.163 489.566 264.185 489.565 261.207 489.57C258.407 489.574 255.607 489.571 252.807 489.563C251.78 489.562 250.753 489.562 249.725 489.565C248.323 489.569 246.92 489.564 245.517 489.557C244.34 489.557 244.34 489.557 243.139 489.556C240.066 489.308 238.32 488.7 236.222 486.427C234.201 483.468 234.291 480.839 234.299 477.386C234.298 476.834 234.296 476.282 234.295 475.713C234.291 473.848 234.292 471.983 234.293 470.118C234.291 468.773 234.289 467.429 234.287 466.085C234.282 462.378 234.28 458.671 234.28 454.964C234.279 450.971 234.274 446.978 234.269 442.985C234.26 433.792 234.256 424.6 234.253 415.407C234.251 410.866 234.249 406.324 234.246 401.783C234.238 386.24 234.231 370.698 234.228 355.156C234.228 354.18 234.228 353.204 234.228 352.228C234.228 351.25 234.227 350.272 234.227 349.294C234.227 347.331 234.227 345.368 234.226 343.406C234.226 342.919 234.226 342.433 234.226 341.931C234.224 326.151 234.213 310.37 234.198 294.589C234.181 277.91 234.172 261.231 234.171 244.551C234.171 242.721 234.171 240.89 234.171 239.06C234.171 238.609 234.171 238.158 234.171 237.694C234.17 230.436 234.163 223.178 234.153 215.92C234.143 208.627 234.141 201.333 234.147 194.04C234.149 190.088 234.148 186.135 234.139 182.183C234.131 178.567 234.131 174.95 234.14 171.334C234.141 170.024 234.139 168.714 234.133 167.404C234.126 165.626 234.131 163.848 234.139 162.07C234.133 161.56 234.128 161.049 234.123 160.523C234.156 157.129 234.758 154.733 236.389 151.734C239.495 149.908 242.105 149.481 245.669 149.478C246.108 149.475 246.548 149.471 247 149.468C248.46 149.46 249.919 149.467 251.378 149.473C252.43 149.47 253.481 149.467 254.533 149.462C257.38 149.453 260.227 149.457 263.074 149.463C266.058 149.468 269.042 149.463 272.026 149.46C277.036 149.457 282.047 149.461 287.057 149.471C292.844 149.482 298.631 149.478 304.418 149.467C309.393 149.458 314.367 149.457 319.342 149.462C322.311 149.465 325.279 149.466 328.247 149.459C331.039 149.453 333.83 149.457 336.621 149.469C337.643 149.471 338.666 149.471 339.688 149.466C341.088 149.461 342.487 149.468 343.886 149.478C345.059 149.479 345.059 149.479 346.256 149.48C348.972 149.786 350.734 150.49 353.166 151.734C355.804 155.163 355.919 158.287 355.911 162.514C355.911 162.99 355.911 163.465 355.912 163.955C355.911 165.522 355.906 167.089 355.901 168.656C355.899 169.744 355.898 170.833 355.898 171.921C355.895 174.782 355.889 177.643 355.881 180.504C355.874 183.425 355.871 186.346 355.868 189.267C355.861 194.995 355.85 200.724 355.836 206.452C356.2 205.904 356.565 205.356 356.941 204.791C357.66 203.711 357.66 203.711 358.394 202.609C359.106 201.539 359.106 201.539 359.833 200.447C377.285 174.381 398.987 153.256 430.482 146.677C437.45 145.301 444.396 144.228 451.51 144.143Z" fill="black"/>
<path d="M1703.4 149.638C1703.84 149.636 1704.28 149.634 1704.73 149.632C1706.2 149.626 1707.67 149.625 1709.14 149.624C1710.19 149.621 1711.24 149.618 1712.29 149.614C1715.16 149.606 1718.02 149.601 1720.88 149.598C1722.66 149.596 1724.45 149.594 1726.24 149.591C1731.83 149.582 1737.42 149.575 1743.01 149.572C1749.47 149.569 1755.92 149.558 1762.38 149.538C1767.37 149.524 1772.36 149.517 1777.35 149.516C1780.33 149.516 1783.31 149.512 1786.29 149.5C1789.09 149.489 1791.9 149.487 1794.7 149.493C1795.73 149.494 1796.76 149.491 1797.78 149.484C1799.19 149.476 1800.59 149.48 1802 149.487C1803.18 149.485 1803.18 149.485 1804.38 149.484C1806.89 149.771 1808.43 150.363 1810.55 151.734C1812.77 154.548 1812.84 157.161 1812.8 160.609C1812.81 161.168 1812.81 161.726 1812.81 162.301C1812.82 164.18 1812.81 166.059 1812.81 167.938C1812.81 169.296 1812.81 170.653 1812.82 172.011C1812.83 175.748 1812.82 179.485 1812.81 183.222C1812.81 187.249 1812.82 191.277 1812.82 195.304C1812.83 202.74 1812.83 210.176 1812.82 217.612C1812.82 224.481 1812.82 231.35 1812.82 238.22C1812.82 238.675 1812.82 239.13 1812.82 239.599C1812.82 241.448 1812.82 243.296 1812.82 245.145C1812.83 262.49 1812.82 279.835 1812.81 297.18C1812.8 312.595 1812.8 328.011 1812.81 343.426C1812.82 360.739 1812.83 378.052 1812.82 395.365C1812.82 397.21 1812.82 399.055 1812.82 400.9C1812.82 401.355 1812.82 401.809 1812.82 402.277C1812.82 409.142 1812.82 416.008 1812.83 422.873C1812.83 430.678 1812.83 438.483 1812.82 446.288C1812.81 450.273 1812.81 454.257 1812.82 458.242C1812.82 461.886 1812.82 465.53 1812.81 469.175C1812.81 470.496 1812.81 471.818 1812.81 473.139C1812.82 474.93 1812.81 476.72 1812.8 478.511C1812.81 479.029 1812.81 479.547 1812.82 480.081C1812.79 483.077 1812.42 485.014 1810.55 487.386C1807.66 489.26 1805.4 489.639 1801.99 489.642C1801.55 489.645 1801.1 489.648 1800.65 489.652C1799.18 489.66 1797.71 489.653 1796.23 489.647C1795.17 489.65 1794.11 489.653 1793.06 489.658C1790.18 489.667 1787.31 489.663 1784.44 489.657C1781.44 489.652 1778.43 489.657 1775.42 489.66C1770.38 489.663 1765.33 489.659 1760.28 489.649C1754.45 489.638 1748.61 489.642 1742.78 489.653C1737.77 489.662 1732.75 489.663 1727.74 489.658C1724.75 489.655 1721.76 489.654 1718.77 489.661C1715.95 489.667 1713.14 489.663 1710.33 489.651C1709.3 489.648 1708.26 489.649 1707.23 489.654C1705.82 489.659 1704.41 489.652 1703 489.642C1702.21 489.641 1701.43 489.641 1700.61 489.64C1698.06 489.344 1696.56 488.854 1694.44 487.386C1692.55 483.852 1692.15 481.03 1692.19 477.068C1692.18 476.514 1692.18 475.96 1692.18 475.389C1692.17 473.534 1692.18 471.678 1692.18 469.822C1692.18 468.478 1692.18 467.134 1692.18 465.79C1692.17 462.097 1692.17 458.404 1692.18 454.711C1692.18 450.728 1692.17 446.745 1692.17 442.762C1692.16 435.41 1692.16 428.059 1692.17 420.707C1692.17 413.915 1692.17 407.124 1692.17 400.332C1692.17 399.882 1692.17 399.432 1692.17 398.967C1692.17 397.139 1692.17 395.31 1692.17 393.482C1692.16 376.328 1692.17 359.174 1692.18 342.02C1692.19 326.779 1692.19 311.539 1692.18 296.298C1692.17 279.175 1692.16 262.053 1692.17 244.93C1692.17 243.105 1692.17 241.28 1692.17 239.455C1692.17 239.005 1692.17 238.556 1692.17 238.093C1692.17 231.306 1692.17 224.518 1692.17 217.731C1692.16 210.014 1692.16 202.296 1692.17 194.579C1692.18 190.64 1692.18 186.702 1692.17 182.763C1692.17 179.159 1692.17 175.555 1692.18 171.951C1692.18 170.646 1692.18 169.34 1692.18 168.035C1692.17 166.263 1692.18 164.491 1692.19 162.72C1692.18 162.211 1692.18 161.702 1692.17 161.178C1692.21 157.785 1692.87 155.423 1694.44 152.401C1697.2 149.817 1699.74 149.647 1703.4 149.638Z" fill="black"/>
<path d="M10.0568 0.162773C10.851 0.158962 11.6452 0.155152 12.4635 0.151226C13.3326 0.15048 14.2018 0.149734 15.0972 0.148966C16.0236 0.145876 16.9499 0.142523 17.8763 0.138926C20.3912 0.130181 22.906 0.12587 25.4209 0.122904C26.993 0.120946 28.5651 0.118206 30.1372 0.115227C35.0587 0.106105 39.9803 0.0996528 44.9018 0.097075C50.578 0.0940855 56.254 0.0823761 61.9302 0.0630423C66.3211 0.0486065 70.712 0.0418858 75.103 0.0409943C77.724 0.0402958 80.3449 0.0363709 82.9658 0.0244322C85.4322 0.0134157 87.8985 0.0120053 90.3649 0.0178519C91.6972 0.0186089 93.0295 0.00947003 94.3617 0C98.5937 0.0196626 101.905 0.087639 105.598 2.25839C107.669 5.19795 107.11 9.26145 107.086 12.7215C107.086 13.448 107.086 14.1746 107.086 14.9231C107.083 17.3468 107.071 19.7703 107.057 22.194C107.053 23.8917 107.049 25.5894 107.044 27.2871C106.973 48.7517 106.619 70.2152 106.265 91.6767C107.074 91.6732 107.882 91.6697 108.715 91.6661C119.379 91.6251 130.043 91.6355 140.707 91.6714C141.795 91.675 142.882 91.6785 143.97 91.6818C151.252 91.7043 158.533 91.7395 165.814 91.8005C168.876 91.826 171.937 91.8472 174.999 91.8574C177.919 91.8674 180.838 91.8902 183.758 91.9224C184.843 91.9323 185.929 91.9376 187.015 91.9382C188.512 91.9398 190.009 91.9578 191.506 91.9797C192.349 91.9857 193.192 91.9916 194.06 91.9977C196.86 92.4209 198.229 93.1449 200.354 95.0132C203.061 99.2542 202.634 103.842 202.605 108.738C202.606 109.653 202.609 110.569 202.612 111.485C202.618 113.961 202.612 116.437 202.603 118.913C202.596 121.508 202.599 124.103 202.6 126.699C202.6 131.055 202.593 135.411 202.581 139.768C202.567 144.801 202.564 149.835 202.568 154.868C202.572 159.716 202.568 164.564 202.561 169.412C202.558 171.473 202.557 173.534 202.559 175.595C202.56 178.021 202.554 180.448 202.544 182.874C202.54 184.188 202.542 185.501 202.545 186.814C202.54 187.598 202.535 188.382 202.53 189.19C202.529 189.87 202.528 190.55 202.526 191.25C202.27 194.052 201.544 195.873 199.645 197.944C195.067 200.672 188.565 199.878 183.375 199.876C182.563 199.879 181.752 199.881 180.916 199.883C178.708 199.888 176.499 199.891 174.29 199.891C172.907 199.892 171.524 199.893 170.14 199.895C165.305 199.901 160.469 199.904 155.634 199.903C151.141 199.903 146.648 199.91 142.155 199.92C138.283 199.929 134.412 199.933 130.541 199.932C128.235 199.932 125.928 199.934 123.622 199.941C121.05 199.949 118.477 199.946 115.904 199.942C114.772 199.947 114.772 199.947 113.616 199.953C103.1 199.911 103.1 199.911 100.004 196.896C99.4284 195.97 99.4284 195.97 98.8413 195.025C94.5638 188.314 88.8211 182.903 83.2171 177.31C82.4088 176.501 81.6006 175.693 80.7925 174.884C79.1077 173.198 77.4216 171.513 75.7347 169.829C73.5778 167.676 71.4238 165.52 69.2708 163.363C67.6061 161.696 65.9398 160.03 64.273 158.365C63.4781 157.571 62.6837 156.776 61.8899 155.981C60.7804 154.869 59.6688 153.76 58.5566 152.652C58.2328 152.327 57.9089 152.002 57.5753 151.667C55.6623 149.765 53.6661 148.06 51.5464 146.395C50.4201 145.298 49.3084 144.185 48.2099 143.059C47.6112 142.46 47.0125 141.861 46.3957 141.245C10.841 105.69 10.841 105.69 9.14151 103.988C8.10931 102.957 7.07402 101.93 6.03439 100.907C5.35828 100.24 5.35828 100.24 4.66851 99.5592C4.21088 99.1093 3.75326 98.6594 3.28177 98.1959C1.11817 95.9059 1.35418 93.6497 1.28769 90.6549C1.27367 90.1087 1.25965 89.5625 1.24521 88.9998C1.19954 87.1118 1.16061 85.2237 1.12347 83.3354C1.11022 82.6763 1.09698 82.0171 1.08333 81.338C0.793304 66.2009 0.695776 51.0597 0.640609 35.9201C0.630178 33.1599 0.613566 30.3999 0.591857 27.6398C0.566371 24.3371 0.554187 21.0347 0.551917 17.7319C0.548926 16.4952 0.541352 15.2585 0.529017 14.0219C0.512857 12.3146 0.513306 10.6081 0.517914 8.90077C0.509364 8.39905 0.500814 7.89733 0.492004 7.3804C0.514735 5.1118 0.664099 3.82208 2.0189 1.96836C4.58824 0.157176 6.96831 0.171655 10.0568 0.162773Z" fill="#E85829"/>
<path d="M1699.84 32.113C1700.31 32.1104 1700.78 32.1079 1701.26 32.1052C1702.83 32.0984 1704.39 32.101 1705.96 32.1037C1707.08 32.1008 1708.21 32.0973 1709.33 32.0933C1712.39 32.0844 1715.44 32.084 1718.49 32.0857C1721.04 32.0864 1723.59 32.0831 1726.14 32.08C1732.15 32.0725 1738.16 32.0723 1744.18 32.0763C1750.38 32.0803 1756.58 32.0721 1762.78 32.0579C1768.11 32.0461 1773.44 32.0421 1778.76 32.0443C1781.95 32.0455 1785.13 32.0438 1788.31 32.0345C1791.3 32.0261 1794.29 32.0274 1797.28 32.0361C1798.38 32.0377 1799.47 32.0358 1800.57 32.0303C1802.07 32.0234 1803.57 32.0288 1805.07 32.0372C1805.91 32.0371 1806.74 32.037 1807.61 32.0369C1810.17 32.3186 1811.74 32.8548 1813.89 34.2888C1815.16 36.5143 1815.39 38.4326 1815.39 40.9681C1815.4 41.9532 1815.4 41.9532 1815.4 42.9581C1815.4 44.0273 1815.4 44.0273 1815.4 45.1181C1815.4 46.2531 1815.4 46.2531 1815.4 47.411C1815.41 49.9116 1815.4 52.412 1815.4 54.9126C1815.4 56.6503 1815.4 58.388 1815.4 60.1257C1815.41 63.7673 1815.4 67.409 1815.4 71.0507C1815.39 75.257 1815.39 79.4633 1815.4 83.6697C1815.41 87.7211 1815.4 91.7725 1815.4 95.824C1815.4 97.5459 1815.4 99.2678 1815.4 100.99C1815.41 103.395 1815.4 105.801 1815.4 108.207C1815.4 108.92 1815.4 109.632 1815.4 110.367C1815.4 111.023 1815.4 111.68 1815.39 112.357C1815.39 113.209 1815.39 113.209 1815.39 114.079C1815.11 116.799 1814.58 118.467 1812.43 120.23C1810.1 121.232 1808.33 121.29 1805.79 121.292C1805.32 121.295 1804.85 121.298 1804.37 121.302C1802.79 121.31 1801.21 121.303 1799.64 121.297C1798.51 121.3 1797.38 121.303 1796.24 121.308C1793.17 121.317 1790.1 121.313 1787.03 121.307C1783.82 121.302 1780.61 121.306 1777.39 121.31C1771.99 121.313 1766.6 121.308 1761.2 121.299C1754.96 121.288 1748.72 121.292 1742.48 121.303C1737.12 121.312 1731.77 121.313 1726.41 121.308C1723.21 121.305 1720.01 121.304 1716.81 121.311C1713.8 121.317 1710.79 121.313 1707.78 121.301C1706.68 121.298 1705.58 121.299 1704.47 121.304C1702.97 121.309 1701.46 121.302 1699.95 121.292C1699.11 121.291 1698.26 121.291 1697.39 121.29C1694.88 121.012 1693.25 120.356 1691.1 119.036C1690.3 117.433 1690.34 116.408 1690.32 114.617C1690.31 113.967 1690.3 113.317 1690.29 112.647C1690.28 111.932 1690.28 111.216 1690.27 110.478C1690.26 109.726 1690.25 108.974 1690.24 108.199C1690.21 105.701 1690.18 103.202 1690.16 100.704C1690.15 99.8509 1690.14 98.9982 1690.13 98.1198C1690.08 94.0705 1690.04 90.0212 1690 85.9718C1689.96 81.3059 1689.91 76.6401 1689.85 71.9744C1689.8 67.9276 1689.76 63.8809 1689.72 59.834C1689.71 58.1161 1689.69 56.3983 1689.66 54.6805C1689.63 52.2719 1689.61 49.8636 1689.59 47.4548C1689.58 46.7485 1689.57 46.0421 1689.56 45.3143C1689.54 41.3704 1689.56 37.0399 1691.77 33.6215C1694.42 32.1261 1696.85 32.1179 1699.84 32.113Z" fill="black"/>
<path d="M10.0568 0.162773C10.851 0.158962 11.6452 0.155152 12.4635 0.151226C13.3326 0.15048 14.2017 0.149734 15.0972 0.148966C16.0236 0.145876 16.9499 0.142523 17.8763 0.138926C20.3912 0.130181 22.906 0.12587 25.4209 0.122904C26.993 0.120946 28.5651 0.118206 30.1372 0.115227C35.0587 0.106105 39.9802 0.0996528 44.9018 0.097075C50.5779 0.0940855 56.254 0.0823761 61.9301 0.0630423C66.3211 0.0486065 70.712 0.0418858 75.103 0.0409943C77.724 0.0402958 80.3449 0.0363709 82.9658 0.0244322C85.4322 0.0134157 87.8985 0.0120053 90.3649 0.0178519C91.6972 0.0186089 93.0295 0.00947003 94.3617 0C98.5937 0.0196624 101.905 0.0875138 105.598 2.25839C116.711 18.0504 106.402 82.4544 106.265 92.344C71.6922 92.344 37.1193 92.344 1.49882 92.344C0.714425 58.615 0.714425 58.615 0.672514 47.8043C0.669795 47.1713 0.667075 46.5384 0.664273 45.8863C0.650782 42.5818 0.64104 39.2774 0.634555 35.9729C0.628497 33.2743 0.614189 30.5759 0.593501 27.8773C0.567962 24.5429 0.555322 21.2087 0.552289 17.8743C0.549053 16.623 0.541332 15.3717 0.528909 14.1205C0.51276 12.398 0.513246 10.6763 0.517908 8.95372C0.505086 8.19337 0.505086 8.19337 0.492004 7.41765C0.514602 5.13752 0.658783 3.82982 2.0189 1.96505C4.58952 0.158704 6.96965 0.171651 10.0568 0.162773Z" fill="black"/>
</svg>
